<svg width="50" height="50" viewBox="0 0 50 50" fill="none" xmlns="http://www.w3.org/2000/svg">
<rect width="50" height="50" rx="3" fill="#AFAFAF"/>
<path d="M20.45 32.4915H19.8C14.6 32.4915 12 31.345 12 25.6122V19.8794C12 15.2931 14.6 13 19.8 13H30.2C35.4 13 38 15.2931 38 19.8794V25.6122C38 30.1984 35.4 32.4915 30.2 32.4915H29.55C29.147 32.4915 28.757 32.6635 28.51 32.9501L26.56 35.2433C25.702 36.2522 24.298 36.2522 23.44 35.2433L21.49 32.9501C21.282 32.6979 20.801 32.4915 20.45 32.4915V32.4915Z" stroke="white" stroke-width="1.5" stroke-miterlimit="10" stroke-linecap="round" stroke-linejoin="round"/>
<path d="M33.325 22.9166H33.3458M24.9896 22.9166H25.0104M16.6562 22.9166H16.6729" stroke="white" stroke-width="2" stroke-linecap="round" stroke-linejoin="round"/>
</svg>
